<svg height="512" viewBox="0 0 64 64" width="512" xmlns="http://www.w3.org/2000/svg"><g id="Mobile_optimize" data-name="Mobile optimize"><rect fill="#005ece" height="58" rx="4" width="34" x="27" y="3"/><path d="m31 9h26v42h-26z" fill="#ffcd00"/><path d="m11 59v-13-2h-8v17h8z" fill="#006df0"/><path d="m11 59a12 12 0 0 0 6.631 2h9.369a2.015 2.015 0 0 0 2-2 2.006 2.006 0 0 0 -2-2h1a2.015 2.015 0 0 0 2-2 2.006 2.006 0 0 0 -2-2h1a2.015 2.015 0 0 0 2-2 2.006 2.006 0 0 0 -2-2h1a1.977 1.977 0 0 0 1-3.7 2.2 2.2 0 0 0 -1.112-.3h-7.888l.719-5.752a2 2 0 0 0 -1.985-2.248h-1.734l-.227 2.044a7.82 7.82 0 0 1 -7.773 6.956z" fill="#ffbcab"/><circle cx="44" cy="56" fill="#d80027" r="2"/><circle cx="29" cy="25" fill="#b2fa09" r="10"/><path d="m31 50.961v.039h26v-42c0 22.693-11.541 41.142-26 41.961z" fill="#ddb200"/><g fill="#231f20"><path d="m57 2h-26a5.006 5.006 0 0 0 -5 5v7.426a10.988 10.988 0 0 0 0 21.148v8.426h-2.867l.578-4.628a3 3 0 0 0 -2.977-3.372h-1.734a1 1 0 0 0 -.994.889l-.228 2.044a6.806 6.806 0 0 1 -5.778 5.987v-.92a1 1 0 0 0 -1-1h-8a1 1 0 0 0 -1 1v17a1 1 0 0 0 1 1h8a1 1 0 0 0 1-1v-.287a12.962 12.962 0 0 0 5.633 1.287h9.367a2.942 2.942 0 0 0 1.726-.555 4.908 4.908 0 0 0 2.274.555h26a5.006 5.006 0 0 0 5-5v-50a5.006 5.006 0 0 0 -5-5zm-37 23a9 9 0 1 1 9 9 9.01 9.01 0 0 1 -9-9zm11.806 25a2.97 2.97 0 0 0 -.192-.47 2.763 2.763 0 0 0 .493-.4 2.959 2.959 0 0 0 .881-2.387 2.921 2.921 0 0 0 -.988-1.943v-9.226a10.988 10.988 0 0 0 0-21.148v-4.426h24v40zm-3.806-14.051c.33.03.662.051 1 .051s.67-.021 1-.051v8.061c-.038 0-.074-.01-.112-.01h-1.888zm-18 24.051h-6v-15h6zm17 0h-9.367a10.955 10.955 0 0 1 -5.633-1.548v-11.508a8.81 8.81 0 0 0 7.766-7.79l.134-1.154h.839a1 1 0 0 1 .993 1.124l-.719 5.752a1 1 0 0 0 .987 1.124h7.888a1.083 1.083 0 0 1 1.112.908.978.978 0 0 1 -.3.8.957.957 0 0 1 -.7.292h-1a1 1 0 0 0 0 2 1 1 0 0 1 1 1 .978.978 0 0 1 -.306.712.957.957 0 0 1 -.694.288h-1a1 1 0 0 0 0 2 1 1 0 0 1 1 1 .978.978 0 0 1 -.306.712.957.957 0 0 1 -.694.288h-1a1 1 0 0 0 0 2 1 1 0 0 1 1 1 .978.978 0 0 1 -.306.712.957.957 0 0 1 -.694.288zm33-3a3 3 0 0 1 -3 3h-26a2.939 2.939 0 0 1 -1.113-.226 2.89 2.89 0 0 0 -.273-2.244 2.763 2.763 0 0 0 .493-.4 2.935 2.935 0 0 0 .893-2.13 2.975 2.975 0 0 0 -.386-1.47 2.763 2.763 0 0 0 .493-.4 2.906 2.906 0 0 0 .711-1.13h25.182a1 1 0 0 0 1-1v-42a1 1 0 0 0 -1-1h-26a1 1 0 0 0 -1 1v5.051c-.33-.03-.662-.051-1-.051s-.67.021-1 .051v-7.051a3 3 0 0 1 3-3h26a3 3 0 0 1 3 3z"/><path d="m44 53a3 3 0 1 0 3 3 3 3 0 0 0 -3-3zm0 4a1 1 0 1 1 1-1 1 1 0 0 1 -1 1z"/><path d="m46 5h-4a1 1 0 0 0 0 2h4a1 1 0 0 0 0-2z"/><path d="m34.778 21.222a1 1 0 0 0 -1.414 0l-6.364 6.364-2.535-2.536a1 1 0 1 0 -1.414 1.414l3.242 3.243a1 1 0 0 0 1.414 0l7.071-7.071a1 1 0 0 0 0-1.414z"/></g></g></svg>